<svg width="50" height="50" viewBox="0 0 50 50" fill="none" xmlns="http://www.w3.org/2000/svg">
<g clip-path="url(#clip0_239_611)">
<path d="M16.1241 18.7563C22.8095 12.368 24.5624 3.59032 24.0671 0C30.5669 13.1851 25.038 17.368 18.724 25.4418C13.5915 32.0047 18.2288 40.0506 20.9525 43.4553C9.81009 40.1125 7.76733 26.7417 16.1241 18.7563Z" fill="url(#paint0_linear_239_611)"/>
<path d="M30.2376 20.6134C36.7022 12.8975 28.2761 3.65222 24.0668 0C32.3676 16.8993 19.7957 20.9848 17.1957 27.4845C14.3985 34.4773 19.0953 41.2268 20.9522 43.4553C18.9095 36.3984 23.236 28.9702 30.2376 20.6134Z" fill="url(#paint1_linear_239_611)"/>
<path d="M24.344 29.7109C20.6828 35.8771 20.8774 41.1009 21.9298 43.0818C38.6433 33.0537 32.3293 18.0115 32.1436 18.7543C31.9579 19.4971 27.8724 23.7683 24.344 29.7109Z" fill="url(#paint2_linear_239_611)"/>
<path d="M35.4861 39.9249C30.6578 45.6818 24.5295 43.8247 21.9296 43.0819C23.9723 42.0296 28.2436 38.7364 31.2149 33.2395C34.1862 27.7426 33.3815 21.2305 32.3291 18.7544C39.9431 29.8968 40.3145 34.168 35.4861 39.9249Z" fill="url(#paint3_linear_239_611)"/>
<g filter="url(#filter0_d_239_611)">
<path d="M32.2914 21.9551C32.2211 22.1644 32.1479 22.3803 32.0719 22.6022C31.0665 25.5366 29.5548 29.5551 27.5283 33.891C26.7 35.6634 24.9344 38.759 23.1461 41.7862C24.1478 40.8874 25.1803 40.0342 26.1835 39.3225C26.9814 38.7564 27.7839 38.2632 28.5561 37.9079C29.3165 37.5581 30.1219 37.307 30.9053 37.307C32.8265 37.307 34.1436 38.1932 35.0179 39.2424C35.0043 38.9673 34.9864 38.6807 34.9646 38.3834C34.7804 35.8766 34.3226 32.7539 33.788 29.6834C33.2966 26.8613 32.7445 24.1071 32.2914 21.9551Z" stroke="#FFFDFD" stroke-width="2.28552"/>
</g>
</g>
<defs>
<filter id="filter0_d_239_611" x="16.0753" y="16.8871" width="21.478" height="34.6239" filterUnits="userSpaceOnUse" color-interpolation-filters="sRGB">
<feFlood flood-opacity="0" result="BackgroundImageFix"/>
<feColorMatrix in="SourceAlpha" type="matrix" values="0 0 0 0 0 0 0 0 0 0 0 0 0 0 0 0 0 0 127 0" result="hardAlpha"/>
<feOffset dx="0.302194" dy="0.453291"/>
<feGaussianBlur stdDeviation="0.52884"/>
<feColorMatrix type="matrix" values="0 0 0 0 0 0 0 0 0 0 0 0 0 0 0 0 0 0 0.41 0"/>
<feBlend mode="normal" in2="BackgroundImageFix" result="effect1_dropShadow_239_611"/>
<feBlend mode="normal" in="SourceGraphic" in2="effect1_dropShadow_239_611" result="shape"/>
</filter>
<linearGradient id="paint0_linear_239_611" x1="19.6948" y1="-1.48101e-08" x2="19.6948" y2="43.0838" gradientUnits="userSpaceOnUse">
<stop stop-color="#F82D04"/>
<stop offset="1" stop-color="#FFE249"/>
</linearGradient>
<linearGradient id="paint1_linear_239_611" x1="24.6623" y1="0" x2="24.6623" y2="43.4553" gradientUnits="userSpaceOnUse">
<stop stop-color="#FFF500"/>
<stop offset="1" stop-color="#F74001"/>
</linearGradient>
<linearGradient id="paint2_linear_239_611" x1="27.1195" y1="18.7278" x2="27.1195" y2="42.7896" gradientUnits="userSpaceOnUse">
<stop stop-color="#FFF500"/>
<stop offset="1" stop-color="#FE2E00"/>
</linearGradient>
<linearGradient id="paint3_linear_239_611" x1="29.9615" y1="18.7544" x2="29.9615" y2="43.6639" gradientUnits="userSpaceOnUse">
<stop stop-color="#FFF500"/>
<stop offset="1" stop-color="#FE2E00"/>
</linearGradient>
<clipPath id="clip0_239_611">
<rect width="50" height="50" fill="white"/>
</clipPath>
</defs>
</svg>
